<svg width="512" height="512" viewBox="0 0 512 512" fill="none" xmlns="http://www.w3.org/2000/svg">
<path d="M234.395 56.2167C243.377 38.7819 268.305 38.7819 277.287 56.2167L301.884 103.958C307.281 114.434 319.458 119.478 330.682 115.886L381.833 99.5205C400.512 93.5438 418.139 111.17 412.162 129.85L395.796 181C392.205 192.225 397.249 204.401 407.725 209.798L455.466 234.395C472.901 243.377 472.901 268.305 455.466 277.287L407.725 301.883C397.249 307.281 392.205 319.457 395.796 330.681L412.162 381.832C418.139 400.511 400.512 418.138 381.833 412.161L330.682 395.795C319.458 392.204 307.281 397.247 301.884 407.724L277.287 455.465C268.305 472.9 243.377 472.9 234.395 455.465L209.798 407.724C204.401 397.247 192.225 392.204 181 395.795L129.85 412.161C111.17 418.138 93.5431 400.511 99.5198 381.832L115.886 330.681C119.477 319.457 114.434 307.281 103.957 301.883L56.2158 277.287C38.7809 268.305 38.7809 243.377 56.2158 234.395L103.957 209.798C114.434 204.401 119.477 192.225 115.886 181L99.5198 129.85C93.5431 111.17 111.17 93.5438 129.85 99.5205L181 115.886C192.225 119.478 204.401 114.434 209.798 103.958L234.395 56.2167Z" fill="url(#paint0_linear_814_5)"/>
<defs>
<linearGradient id="paint0_linear_814_5" x1="-43.9124" y1="-333.384" x2="495.123" y2="-339.291" gradientUnits="userSpaceOnUse">
<stop stop-color="#96BFEE"/>
<stop offset="1" stop-color="#FAFBFF"/>
</linearGradient>
</defs>
</svg>
